M48
;GenerationSoftware,Autodesk,EAGLE,9.6.2*%
;CreationDate,2023-05-17T06:31:08Z*%
FMAT,2
ICI,OFF
METRIC,TZ,000.000
T1C1.016
%
G90
M71
T1
X36830Y36830
X36830Y39370
X36830Y41910
X36830Y44450
X36830Y46990
X36830Y49530
X36830Y52070
X36830Y34290
X64770Y36830
X64770Y39370
X64770Y41910
X64770Y44450
X64770Y46990
X64770Y49530
X64770Y52070
X64770Y34290
X57150Y29210
X54610Y29210
X52070Y29210
X49530Y29210
X46990Y29210
X44450Y29210
X41910Y29210
X59690Y29210
X57150Y57150
X54610Y57150
X52070Y57150
X49530Y57150
X46990Y57150
X44450Y57150
X41910Y57150
X59690Y57150
M30