M48
;GenerationSoftware,Autodesk,EAGLE,9.6.2*%
;CreationDate,2023-05-15T09:06:46Z*%
FMAT,2
ICI,OFF
METRIC,TZ,000.000
T1C1.016
%
G90
M71
T1
X22860Y41910
X25400Y41910
X27940Y41910
X30480Y41910
X33020Y41910
X35560Y41910
X38100Y41910
X20320Y41910
X43180Y21590
X43180Y24130
X43180Y26670
X43180Y29210
X43180Y31750
X43180Y34290
X43180Y36830
X43180Y19050
X22860Y15240
X25400Y15240
X27940Y15240
X30480Y15240
X33020Y15240
X35560Y15240
X38100Y15240
X20320Y15240
X15240Y21590
X15240Y24130
X15240Y26670
X15240Y29210
X15240Y31750
X15240Y34290
X15240Y36830
X15240Y19050
M30