G04 EAGLE Gerber RS-274X export*
G75*
%MOMM*%
%FSLAX34Y34*%
%LPD*%
%INTop Copper*%
%IPPOS*%
%AMOC8*
5,1,8,0,0,1.08239X$1,22.5*%
G01*
%ADD10C,1.524000*%
%ADD11R,0.800000X0.300000*%
%ADD12R,0.300000X0.800000*%
%ADD13R,3.750000X3.750000*%
%ADD14C,0.304800*%
%ADD15C,0.152400*%


D10*
X228600Y426720D02*
X228600Y411480D01*
X254000Y411480D02*
X254000Y426720D01*
X279400Y426720D02*
X279400Y411480D01*
X304800Y411480D02*
X304800Y426720D01*
X330200Y426720D02*
X330200Y411480D01*
X355600Y411480D02*
X355600Y426720D01*
X381000Y426720D02*
X381000Y411480D01*
X203200Y411480D02*
X203200Y426720D01*
X424180Y215900D02*
X439420Y215900D01*
X439420Y241300D02*
X424180Y241300D01*
X424180Y266700D02*
X439420Y266700D01*
X439420Y292100D02*
X424180Y292100D01*
X424180Y317500D02*
X439420Y317500D01*
X439420Y342900D02*
X424180Y342900D01*
X424180Y368300D02*
X439420Y368300D01*
X439420Y190500D02*
X424180Y190500D01*
X228600Y160020D02*
X228600Y144780D01*
X254000Y144780D02*
X254000Y160020D01*
X279400Y160020D02*
X279400Y144780D01*
X304800Y144780D02*
X304800Y160020D01*
X330200Y160020D02*
X330200Y144780D01*
X355600Y144780D02*
X355600Y160020D01*
X381000Y160020D02*
X381000Y144780D01*
X203200Y144780D02*
X203200Y160020D01*
X160020Y215900D02*
X144780Y215900D01*
X144780Y241300D02*
X160020Y241300D01*
X160020Y266700D02*
X144780Y266700D01*
X144780Y292100D02*
X160020Y292100D01*
X160020Y317500D02*
X144780Y317500D01*
X144780Y342900D02*
X160020Y342900D01*
X160020Y368300D02*
X144780Y368300D01*
X144780Y190500D02*
X160020Y190500D01*
D11*
X267100Y309600D03*
X267100Y304600D03*
X267100Y299600D03*
X267100Y294600D03*
X267100Y289600D03*
X267100Y284600D03*
X267100Y279600D03*
X267100Y274600D03*
D12*
X274600Y267100D03*
X279600Y267100D03*
X284600Y267100D03*
X289600Y267100D03*
X294600Y267100D03*
X299600Y267100D03*
X304600Y267100D03*
X309600Y267100D03*
D11*
X317100Y274600D03*
X317100Y279600D03*
X317100Y284600D03*
X317100Y289600D03*
X317100Y294600D03*
X317100Y299600D03*
X317100Y304600D03*
X317100Y309600D03*
D12*
X309600Y317100D03*
X304600Y317100D03*
X299600Y317100D03*
X294600Y317100D03*
X289600Y317100D03*
X284600Y317100D03*
X279600Y317100D03*
X274600Y317100D03*
D13*
X292100Y292100D03*
D14*
X309600Y317100D02*
X309172Y317528D01*
X309172Y330200D01*
X381000Y402028D02*
X381000Y419100D01*
X381000Y402028D02*
X309172Y330200D01*
X304600Y342700D02*
X304600Y317100D01*
X355600Y393700D02*
X355600Y419100D01*
X355600Y393700D02*
X304600Y342700D01*
X299600Y350400D02*
X299600Y317100D01*
X299600Y350400D02*
X330200Y381000D01*
X330200Y419100D01*
X294600Y383500D02*
X294600Y317100D01*
X294600Y383500D02*
X304800Y393700D01*
X304800Y419100D01*
X289600Y358100D02*
X289600Y317100D01*
X289600Y358100D02*
X279400Y368300D01*
X279400Y419100D01*
X284600Y350400D02*
X284600Y317100D01*
X254000Y381000D02*
X254000Y419100D01*
X254000Y381000D02*
X284600Y350400D01*
X279600Y332094D02*
X228600Y383094D01*
X228600Y419100D01*
X279600Y332094D02*
X279600Y317100D01*
X275000Y317500D02*
X274600Y317100D01*
X275000Y317500D02*
X275028Y317500D01*
X275028Y317528D02*
X274600Y317100D01*
X203200Y393700D02*
X203200Y419100D01*
X274600Y322300D02*
X274600Y317100D01*
X274600Y322300D02*
X203200Y393700D01*
D15*
X317100Y274600D02*
X318516Y274320D01*
X431292Y190500D02*
X431800Y190500D01*
D14*
X330200Y275028D02*
X318972Y275028D01*
X317278Y274778D02*
X317100Y274600D01*
X317278Y274778D02*
X318723Y274778D01*
X318972Y275028D01*
X414728Y190500D02*
X431800Y190500D01*
X414728Y190500D02*
X330200Y275028D01*
D15*
X318516Y278892D02*
X317100Y279600D01*
D14*
X317244Y279600D01*
X317363Y279505D01*
X318232Y279600D01*
X342700Y279600D01*
X411280Y215900D02*
X431800Y215900D01*
X406400Y215900D02*
X342700Y279600D01*
X406400Y215900D02*
X431800Y215900D01*
D15*
X318516Y283464D02*
X317100Y284600D01*
X431292Y242316D02*
X431800Y241300D01*
D14*
X350400Y284600D02*
X317100Y284600D01*
X393700Y241300D02*
X431800Y241300D01*
X393700Y241300D02*
X350400Y284600D01*
D15*
X318516Y289560D02*
X317100Y289600D01*
X431292Y266700D02*
X431800Y266700D01*
D14*
X358100Y289600D02*
X317100Y289600D01*
X381000Y266700D02*
X431800Y266700D01*
X381000Y266700D02*
X358100Y289600D01*
D15*
X429768Y294132D02*
X431800Y292100D01*
X318516Y294132D02*
X317100Y294600D01*
D14*
X403900Y294600D02*
X406400Y292100D01*
X431800Y292100D01*
X403900Y294600D02*
X317100Y294600D01*
D15*
X317100Y299600D02*
X318516Y300228D01*
D14*
X317100Y299600D02*
X363100Y299600D01*
X381000Y317500D01*
X431800Y317500D01*
D15*
X431800Y342900D02*
X431292Y342900D01*
D14*
X355400Y304600D02*
X317100Y304600D01*
X355400Y304600D02*
X355600Y304800D01*
X393700Y342900D01*
X431800Y342900D01*
D15*
X431292Y367284D02*
X422148Y367284D01*
D14*
X330200Y309600D02*
X317100Y309600D01*
X431292Y367792D02*
X431800Y368300D01*
X431292Y367792D02*
X431292Y367284D01*
X387884Y367284D02*
X330200Y309600D01*
X387884Y367284D02*
X422148Y367284D01*
X274600Y267100D02*
X274600Y249200D01*
X203200Y177800D02*
X203200Y152400D01*
X203200Y177800D02*
X274600Y249200D01*
X228600Y165100D02*
X228600Y152400D01*
X279600Y241300D02*
X279600Y267100D01*
X279600Y241300D02*
X228600Y190300D01*
X228600Y152400D01*
X254000Y152400D02*
X254000Y173736D01*
X284600Y241300D02*
X284600Y267100D01*
X284600Y241300D02*
X284600Y233800D01*
X254000Y203200D02*
X254000Y173736D01*
X254000Y203200D02*
X284600Y233800D01*
D15*
X280416Y152400D02*
X279400Y152400D01*
D14*
X289600Y226100D02*
X289600Y267100D01*
X279400Y205700D02*
X279400Y152400D01*
X279400Y215900D02*
X289600Y226100D01*
X279400Y215900D02*
X279400Y205700D01*
X294600Y215900D02*
X294600Y267100D01*
X294600Y215900D02*
X304800Y205700D01*
X304800Y152400D01*
D15*
X329184Y152400D02*
X330200Y152400D01*
D14*
X299600Y233800D02*
X299600Y267100D01*
X330200Y203200D02*
X330200Y152400D01*
X330200Y203200D02*
X299600Y233800D01*
D15*
X304800Y266700D02*
X304600Y267100D01*
X355092Y152400D02*
X355600Y152400D01*
D14*
X304600Y241500D02*
X304600Y267100D01*
X304600Y241500D02*
X304800Y241300D01*
X355600Y190500D01*
X355600Y152400D01*
X309600Y254000D02*
X309600Y267100D01*
X309600Y254000D02*
X381000Y182600D01*
X381000Y152400D01*
X267100Y309600D02*
X246100Y309600D01*
X245872Y309372D01*
X187400Y368300D02*
X152400Y368300D01*
X187400Y368300D02*
X246100Y309600D01*
X241500Y304600D02*
X267100Y304600D01*
X203200Y342900D02*
X152400Y342900D01*
X203200Y342900D02*
X241500Y304600D01*
X165100Y317500D02*
X152400Y317500D01*
X233800Y299600D02*
X267100Y299600D01*
X215900Y317500D02*
X152400Y317500D01*
X215900Y317500D02*
X233800Y299600D01*
X267100Y294600D02*
X154900Y294600D01*
X152400Y292100D01*
X228640Y289600D02*
X267100Y289600D01*
X228640Y289600D02*
X228600Y289560D01*
X205740Y266700D01*
X152400Y266700D01*
X153416Y242316D02*
X152400Y241300D01*
X266672Y284172D02*
X267100Y284600D01*
X266672Y284172D02*
X233372Y284172D01*
X190500Y241300D02*
X152400Y241300D01*
X190500Y241300D02*
X233372Y284172D01*
X152908Y216408D02*
X152400Y215900D01*
X177800Y216408D02*
X178308Y216408D01*
X177800Y216408D02*
X165100Y216408D01*
X152908Y216408D01*
X165100Y216408D02*
X165608Y215900D01*
X266900Y279400D02*
X267100Y279600D01*
X240792Y279400D02*
X177800Y216408D01*
X240792Y279400D02*
X266900Y279400D01*
X266872Y274828D02*
X267100Y274600D01*
X266872Y274828D02*
X256402Y274828D01*
X172074Y190500D02*
X152400Y190500D01*
X172074Y190500D02*
X256402Y274828D01*
M02*
