G04 EAGLE Gerber RS-274X export*
G75*
%MOMM*%
%FSLAX34Y34*%
%LPD*%
%INSilkscreen Top*%
%IPPOS*%
%AMOC8*
5,1,8,0,0,1.08239X$1,22.5*%
G01*
%ADD10C,0.152400*%
%ADD11R,0.508000X0.508000*%
%ADD12C,0.101600*%
%ADD13C,0.250000*%


D10*
X444500Y177800D02*
X419100Y177800D01*
X419100Y381000D01*
X444500Y381000D01*
X444500Y177800D01*
X419100Y177800D02*
X412750Y177800D01*
X412750Y381000D01*
X419100Y381000D01*
D11*
X431800Y266700D03*
X431800Y241300D03*
X431800Y215900D03*
X431800Y292100D03*
X431800Y317500D03*
X431800Y342900D03*
X431800Y368300D03*
X431800Y190500D03*
D12*
X452120Y263991D02*
X461208Y263991D01*
X461208Y263990D02*
X461307Y263988D01*
X461407Y263982D01*
X461506Y263973D01*
X461604Y263960D01*
X461702Y263943D01*
X461800Y263922D01*
X461896Y263897D01*
X461991Y263869D01*
X462085Y263837D01*
X462178Y263802D01*
X462270Y263763D01*
X462360Y263720D01*
X462448Y263675D01*
X462535Y263625D01*
X462619Y263573D01*
X462702Y263517D01*
X462782Y263459D01*
X462860Y263397D01*
X462935Y263332D01*
X463008Y263264D01*
X463078Y263194D01*
X463146Y263121D01*
X463211Y263046D01*
X463273Y262968D01*
X463331Y262888D01*
X463387Y262805D01*
X463439Y262721D01*
X463489Y262634D01*
X463534Y262546D01*
X463577Y262456D01*
X463616Y262364D01*
X463651Y262271D01*
X463683Y262177D01*
X463711Y262082D01*
X463736Y261986D01*
X463757Y261888D01*
X463774Y261790D01*
X463787Y261692D01*
X463796Y261593D01*
X463802Y261493D01*
X463804Y261394D01*
X463804Y260096D01*
X452120Y272834D02*
X452122Y272941D01*
X452128Y273047D01*
X452138Y273153D01*
X452151Y273259D01*
X452169Y273365D01*
X452190Y273469D01*
X452215Y273573D01*
X452244Y273676D01*
X452276Y273777D01*
X452313Y273877D01*
X452353Y273976D01*
X452396Y274074D01*
X452443Y274170D01*
X452494Y274264D01*
X452548Y274356D01*
X452605Y274446D01*
X452665Y274534D01*
X452729Y274619D01*
X452796Y274702D01*
X452866Y274783D01*
X452938Y274861D01*
X453014Y274937D01*
X453092Y275009D01*
X453173Y275079D01*
X453256Y275146D01*
X453341Y275210D01*
X453429Y275270D01*
X453519Y275327D01*
X453611Y275381D01*
X453705Y275432D01*
X453801Y275479D01*
X453899Y275522D01*
X453998Y275562D01*
X454098Y275599D01*
X454199Y275631D01*
X454302Y275660D01*
X454406Y275685D01*
X454510Y275706D01*
X454616Y275724D01*
X454722Y275737D01*
X454828Y275747D01*
X454934Y275753D01*
X455041Y275755D01*
X452120Y272834D02*
X452122Y272713D01*
X452128Y272592D01*
X452138Y272472D01*
X452151Y272351D01*
X452169Y272232D01*
X452190Y272112D01*
X452215Y271994D01*
X452244Y271877D01*
X452277Y271760D01*
X452313Y271645D01*
X452354Y271531D01*
X452397Y271418D01*
X452445Y271306D01*
X452496Y271197D01*
X452551Y271089D01*
X452609Y270982D01*
X452670Y270878D01*
X452735Y270776D01*
X452803Y270676D01*
X452874Y270578D01*
X452948Y270482D01*
X453025Y270389D01*
X453106Y270299D01*
X453189Y270211D01*
X453275Y270126D01*
X453364Y270043D01*
X453455Y269964D01*
X453549Y269887D01*
X453645Y269814D01*
X453743Y269744D01*
X453844Y269677D01*
X453947Y269613D01*
X454052Y269553D01*
X454159Y269495D01*
X454267Y269442D01*
X454377Y269392D01*
X454489Y269346D01*
X454602Y269303D01*
X454717Y269264D01*
X457313Y274781D02*
X457235Y274860D01*
X457155Y274936D01*
X457072Y275009D01*
X456986Y275079D01*
X456899Y275146D01*
X456808Y275210D01*
X456716Y275270D01*
X456622Y275328D01*
X456525Y275382D01*
X456427Y275432D01*
X456327Y275479D01*
X456226Y275523D01*
X456123Y275563D01*
X456018Y275599D01*
X455913Y275631D01*
X455806Y275660D01*
X455699Y275685D01*
X455590Y275707D01*
X455481Y275724D01*
X455372Y275738D01*
X455262Y275747D01*
X455151Y275753D01*
X455041Y275755D01*
X457313Y274782D02*
X463804Y269264D01*
X463804Y275755D01*
D10*
X190500Y165100D02*
X190500Y139700D01*
X190500Y165100D02*
X393700Y165100D01*
X393700Y139700D01*
X190500Y139700D01*
X190500Y165100D02*
X190500Y171450D01*
X393700Y171450D01*
X393700Y165100D01*
D11*
X279400Y152400D03*
X254000Y152400D03*
X228600Y152400D03*
X304800Y152400D03*
X330200Y152400D03*
X355600Y152400D03*
X381000Y152400D03*
X203200Y152400D03*
D12*
X276691Y132080D02*
X276691Y122992D01*
X276690Y122992D02*
X276688Y122893D01*
X276682Y122793D01*
X276673Y122694D01*
X276660Y122596D01*
X276643Y122498D01*
X276622Y122400D01*
X276597Y122304D01*
X276569Y122209D01*
X276537Y122115D01*
X276502Y122022D01*
X276463Y121930D01*
X276420Y121840D01*
X276375Y121752D01*
X276325Y121665D01*
X276273Y121581D01*
X276217Y121498D01*
X276159Y121418D01*
X276097Y121340D01*
X276032Y121265D01*
X275964Y121192D01*
X275894Y121122D01*
X275821Y121054D01*
X275746Y120989D01*
X275668Y120927D01*
X275588Y120869D01*
X275505Y120813D01*
X275421Y120761D01*
X275334Y120711D01*
X275246Y120666D01*
X275156Y120623D01*
X275064Y120584D01*
X274971Y120549D01*
X274877Y120517D01*
X274782Y120489D01*
X274686Y120464D01*
X274588Y120443D01*
X274490Y120426D01*
X274392Y120413D01*
X274293Y120404D01*
X274193Y120398D01*
X274094Y120396D01*
X272796Y120396D01*
X281964Y120396D02*
X285210Y120396D01*
X285323Y120398D01*
X285436Y120404D01*
X285549Y120414D01*
X285662Y120428D01*
X285774Y120445D01*
X285885Y120467D01*
X285995Y120492D01*
X286105Y120522D01*
X286213Y120555D01*
X286320Y120592D01*
X286426Y120632D01*
X286530Y120677D01*
X286633Y120725D01*
X286734Y120776D01*
X286833Y120831D01*
X286930Y120889D01*
X287025Y120951D01*
X287118Y121016D01*
X287208Y121084D01*
X287296Y121155D01*
X287382Y121230D01*
X287465Y121307D01*
X287545Y121387D01*
X287622Y121470D01*
X287697Y121556D01*
X287768Y121644D01*
X287836Y121734D01*
X287901Y121827D01*
X287963Y121922D01*
X288021Y122019D01*
X288076Y122118D01*
X288127Y122219D01*
X288175Y122322D01*
X288220Y122426D01*
X288260Y122532D01*
X288297Y122639D01*
X288330Y122747D01*
X288360Y122857D01*
X288385Y122967D01*
X288407Y123078D01*
X288424Y123190D01*
X288438Y123303D01*
X288448Y123416D01*
X288454Y123529D01*
X288456Y123642D01*
X288454Y123755D01*
X288448Y123868D01*
X288438Y123981D01*
X288424Y124094D01*
X288407Y124206D01*
X288385Y124317D01*
X288360Y124427D01*
X288330Y124537D01*
X288297Y124645D01*
X288260Y124752D01*
X288220Y124858D01*
X288175Y124962D01*
X288127Y125065D01*
X288076Y125166D01*
X288021Y125265D01*
X287963Y125362D01*
X287901Y125457D01*
X287836Y125550D01*
X287768Y125640D01*
X287697Y125728D01*
X287622Y125814D01*
X287545Y125897D01*
X287465Y125977D01*
X287382Y126054D01*
X287296Y126129D01*
X287208Y126200D01*
X287118Y126268D01*
X287025Y126333D01*
X286930Y126395D01*
X286833Y126453D01*
X286734Y126508D01*
X286633Y126559D01*
X286530Y126607D01*
X286426Y126652D01*
X286320Y126692D01*
X286213Y126729D01*
X286105Y126762D01*
X285995Y126792D01*
X285885Y126817D01*
X285774Y126839D01*
X285662Y126856D01*
X285549Y126870D01*
X285436Y126880D01*
X285323Y126886D01*
X285210Y126888D01*
X285859Y132080D02*
X281964Y132080D01*
X285859Y132080D02*
X285960Y132078D01*
X286060Y132072D01*
X286160Y132062D01*
X286260Y132049D01*
X286359Y132031D01*
X286458Y132010D01*
X286555Y131985D01*
X286652Y131956D01*
X286747Y131923D01*
X286841Y131887D01*
X286933Y131847D01*
X287024Y131804D01*
X287113Y131757D01*
X287200Y131707D01*
X287286Y131653D01*
X287369Y131596D01*
X287449Y131536D01*
X287528Y131473D01*
X287604Y131406D01*
X287677Y131337D01*
X287747Y131265D01*
X287815Y131191D01*
X287880Y131114D01*
X287941Y131034D01*
X288000Y130952D01*
X288055Y130868D01*
X288107Y130782D01*
X288156Y130694D01*
X288201Y130604D01*
X288243Y130512D01*
X288281Y130419D01*
X288315Y130324D01*
X288346Y130229D01*
X288373Y130132D01*
X288396Y130034D01*
X288416Y129935D01*
X288431Y129835D01*
X288443Y129735D01*
X288451Y129635D01*
X288455Y129534D01*
X288455Y129434D01*
X288451Y129333D01*
X288443Y129233D01*
X288431Y129133D01*
X288416Y129033D01*
X288396Y128934D01*
X288373Y128836D01*
X288346Y128739D01*
X288315Y128644D01*
X288281Y128549D01*
X288243Y128456D01*
X288201Y128364D01*
X288156Y128274D01*
X288107Y128186D01*
X288055Y128100D01*
X288000Y128016D01*
X287941Y127934D01*
X287880Y127854D01*
X287815Y127777D01*
X287747Y127703D01*
X287677Y127631D01*
X287604Y127562D01*
X287528Y127495D01*
X287449Y127432D01*
X287369Y127372D01*
X287286Y127315D01*
X287200Y127261D01*
X287113Y127211D01*
X287024Y127164D01*
X286933Y127121D01*
X286841Y127081D01*
X286747Y127045D01*
X286652Y127012D01*
X286555Y126983D01*
X286458Y126958D01*
X286359Y126937D01*
X286260Y126919D01*
X286160Y126906D01*
X286060Y126896D01*
X285960Y126890D01*
X285859Y126888D01*
X285859Y126887D02*
X283262Y126887D01*
D13*
X261850Y317100D02*
X261852Y317170D01*
X261858Y317240D01*
X261868Y317309D01*
X261881Y317378D01*
X261899Y317446D01*
X261920Y317513D01*
X261945Y317578D01*
X261974Y317642D01*
X262006Y317705D01*
X262042Y317765D01*
X262081Y317823D01*
X262123Y317879D01*
X262168Y317933D01*
X262216Y317984D01*
X262267Y318032D01*
X262321Y318077D01*
X262377Y318119D01*
X262435Y318158D01*
X262495Y318194D01*
X262558Y318226D01*
X262622Y318255D01*
X262687Y318280D01*
X262754Y318301D01*
X262822Y318319D01*
X262891Y318332D01*
X262960Y318342D01*
X263030Y318348D01*
X263100Y318350D01*
X263170Y318348D01*
X263240Y318342D01*
X263309Y318332D01*
X263378Y318319D01*
X263446Y318301D01*
X263513Y318280D01*
X263578Y318255D01*
X263642Y318226D01*
X263705Y318194D01*
X263765Y318158D01*
X263823Y318119D01*
X263879Y318077D01*
X263933Y318032D01*
X263984Y317984D01*
X264032Y317933D01*
X264077Y317879D01*
X264119Y317823D01*
X264158Y317765D01*
X264194Y317705D01*
X264226Y317642D01*
X264255Y317578D01*
X264280Y317513D01*
X264301Y317446D01*
X264319Y317378D01*
X264332Y317309D01*
X264342Y317240D01*
X264348Y317170D01*
X264350Y317100D01*
X264348Y317030D01*
X264342Y316960D01*
X264332Y316891D01*
X264319Y316822D01*
X264301Y316754D01*
X264280Y316687D01*
X264255Y316622D01*
X264226Y316558D01*
X264194Y316495D01*
X264158Y316435D01*
X264119Y316377D01*
X264077Y316321D01*
X264032Y316267D01*
X263984Y316216D01*
X263933Y316168D01*
X263879Y316123D01*
X263823Y316081D01*
X263765Y316042D01*
X263705Y316006D01*
X263642Y315974D01*
X263578Y315945D01*
X263513Y315920D01*
X263446Y315899D01*
X263378Y315881D01*
X263309Y315868D01*
X263240Y315858D01*
X263170Y315852D01*
X263100Y315850D01*
X263030Y315852D01*
X262960Y315858D01*
X262891Y315868D01*
X262822Y315881D01*
X262754Y315899D01*
X262687Y315920D01*
X262622Y315945D01*
X262558Y315974D01*
X262495Y316006D01*
X262435Y316042D01*
X262377Y316081D01*
X262321Y316123D01*
X262267Y316168D01*
X262216Y316216D01*
X262168Y316267D01*
X262123Y316321D01*
X262081Y316377D01*
X262042Y316435D01*
X262006Y316495D01*
X261974Y316558D01*
X261945Y316622D01*
X261920Y316687D01*
X261899Y316754D01*
X261881Y316822D01*
X261868Y316891D01*
X261858Y316960D01*
X261852Y317030D01*
X261850Y317100D01*
D12*
X277996Y327604D02*
X277996Y336042D01*
X277996Y327604D02*
X277998Y327491D01*
X278004Y327378D01*
X278014Y327265D01*
X278028Y327152D01*
X278045Y327040D01*
X278067Y326929D01*
X278092Y326819D01*
X278122Y326709D01*
X278155Y326601D01*
X278192Y326494D01*
X278232Y326388D01*
X278277Y326284D01*
X278325Y326181D01*
X278376Y326080D01*
X278431Y325981D01*
X278489Y325884D01*
X278551Y325789D01*
X278616Y325696D01*
X278684Y325606D01*
X278755Y325518D01*
X278830Y325432D01*
X278907Y325349D01*
X278987Y325269D01*
X279070Y325192D01*
X279156Y325117D01*
X279244Y325046D01*
X279334Y324978D01*
X279427Y324913D01*
X279522Y324851D01*
X279619Y324793D01*
X279718Y324738D01*
X279819Y324687D01*
X279922Y324639D01*
X280026Y324594D01*
X280132Y324554D01*
X280239Y324517D01*
X280347Y324484D01*
X280457Y324454D01*
X280567Y324429D01*
X280678Y324407D01*
X280790Y324390D01*
X280903Y324376D01*
X281016Y324366D01*
X281129Y324360D01*
X281242Y324358D01*
X281355Y324360D01*
X281468Y324366D01*
X281581Y324376D01*
X281694Y324390D01*
X281806Y324407D01*
X281917Y324429D01*
X282027Y324454D01*
X282137Y324484D01*
X282245Y324517D01*
X282352Y324554D01*
X282458Y324594D01*
X282562Y324639D01*
X282665Y324687D01*
X282766Y324738D01*
X282865Y324793D01*
X282962Y324851D01*
X283057Y324913D01*
X283150Y324978D01*
X283240Y325046D01*
X283328Y325117D01*
X283414Y325192D01*
X283497Y325269D01*
X283577Y325349D01*
X283654Y325432D01*
X283729Y325518D01*
X283800Y325606D01*
X283868Y325696D01*
X283933Y325789D01*
X283995Y325884D01*
X284053Y325981D01*
X284108Y326080D01*
X284159Y326181D01*
X284207Y326284D01*
X284252Y326388D01*
X284292Y326494D01*
X284329Y326601D01*
X284362Y326709D01*
X284392Y326819D01*
X284417Y326929D01*
X284439Y327040D01*
X284456Y327152D01*
X284470Y327265D01*
X284480Y327378D01*
X284486Y327491D01*
X284488Y327604D01*
X284487Y327604D02*
X284487Y336042D01*
X292291Y336042D02*
X292291Y324358D01*
X292291Y330200D02*
X290668Y331174D01*
X290667Y331173D02*
X290594Y331220D01*
X290523Y331269D01*
X290453Y331322D01*
X290387Y331378D01*
X290323Y331437D01*
X290261Y331498D01*
X290203Y331562D01*
X290147Y331629D01*
X290095Y331698D01*
X290045Y331770D01*
X289999Y331844D01*
X289956Y331919D01*
X289917Y331997D01*
X289881Y332076D01*
X289849Y332157D01*
X289820Y332239D01*
X289795Y332322D01*
X289774Y332406D01*
X289757Y332491D01*
X289743Y332577D01*
X289734Y332663D01*
X289728Y332750D01*
X289726Y332837D01*
X289728Y332924D01*
X289734Y333011D01*
X289744Y333097D01*
X289757Y333183D01*
X289775Y333268D01*
X289796Y333352D01*
X289821Y333435D01*
X289850Y333518D01*
X289882Y333598D01*
X289918Y333677D01*
X289957Y333755D01*
X290000Y333830D01*
X290047Y333904D01*
X290096Y333975D01*
X290149Y334045D01*
X290204Y334111D01*
X290263Y334175D01*
X290324Y334237D01*
X290389Y334296D01*
X290455Y334351D01*
X290524Y334404D01*
X290596Y334454D01*
X290669Y334500D01*
X290745Y334543D01*
X290822Y334582D01*
X290901Y334618D01*
X290982Y334651D01*
X291064Y334679D01*
X291147Y334705D01*
X291231Y334726D01*
X291317Y334743D01*
X291317Y334744D02*
X291457Y334768D01*
X291599Y334788D01*
X291740Y334804D01*
X291882Y334815D01*
X292025Y334823D01*
X292167Y334827D01*
X292310Y334828D01*
X292453Y334824D01*
X292595Y334816D01*
X292737Y334804D01*
X292879Y334788D01*
X293020Y334769D01*
X293161Y334745D01*
X293301Y334718D01*
X293440Y334686D01*
X293578Y334651D01*
X293716Y334612D01*
X293852Y334569D01*
X293986Y334523D01*
X294120Y334472D01*
X294252Y334419D01*
X294382Y334361D01*
X294511Y334300D01*
X294638Y334235D01*
X294764Y334167D01*
X294887Y334095D01*
X292291Y330200D02*
X293913Y329226D01*
X293914Y329227D02*
X293987Y329180D01*
X294058Y329131D01*
X294128Y329078D01*
X294194Y329022D01*
X294258Y328963D01*
X294320Y328902D01*
X294378Y328838D01*
X294434Y328771D01*
X294486Y328702D01*
X294536Y328630D01*
X294582Y328556D01*
X294625Y328481D01*
X294664Y328403D01*
X294700Y328324D01*
X294732Y328243D01*
X294761Y328161D01*
X294786Y328078D01*
X294807Y327994D01*
X294824Y327909D01*
X294838Y327823D01*
X294847Y327737D01*
X294853Y327650D01*
X294855Y327563D01*
X294853Y327476D01*
X294847Y327389D01*
X294837Y327303D01*
X294824Y327217D01*
X294806Y327132D01*
X294785Y327048D01*
X294760Y326965D01*
X294731Y326882D01*
X294699Y326802D01*
X294663Y326723D01*
X294624Y326645D01*
X294581Y326570D01*
X294534Y326496D01*
X294485Y326425D01*
X294432Y326355D01*
X294377Y326289D01*
X294318Y326225D01*
X294257Y326163D01*
X294192Y326104D01*
X294126Y326049D01*
X294057Y325996D01*
X293985Y325946D01*
X293912Y325900D01*
X293836Y325857D01*
X293759Y325818D01*
X293680Y325782D01*
X293599Y325749D01*
X293517Y325721D01*
X293434Y325695D01*
X293350Y325674D01*
X293265Y325657D01*
X293264Y325656D02*
X293124Y325632D01*
X292982Y325612D01*
X292841Y325596D01*
X292699Y325585D01*
X292556Y325577D01*
X292414Y325573D01*
X292271Y325572D01*
X292128Y325576D01*
X291986Y325584D01*
X291844Y325596D01*
X291702Y325612D01*
X291561Y325631D01*
X291420Y325655D01*
X291280Y325682D01*
X291141Y325714D01*
X291003Y325749D01*
X290865Y325788D01*
X290729Y325831D01*
X290595Y325877D01*
X290461Y325928D01*
X290329Y325981D01*
X290199Y326039D01*
X290070Y326100D01*
X289943Y326165D01*
X289817Y326233D01*
X289694Y326305D01*
X299713Y333446D02*
X302958Y336042D01*
X302958Y324358D01*
X299713Y324358D02*
X306204Y324358D01*
M02*
