G04 EAGLE Gerber RS-274X export*
G75*
%MOMM*%
%FSLAX34Y34*%
%LPD*%
%INSoldermask Top*%
%IPPOS*%
%AMOC8*
5,1,8,0,0,1.08239X$1,22.5*%
G01*
%ADD10C,1.727200*%
%ADD11R,1.003200X0.503200*%
%ADD12R,0.503200X1.003200*%
%ADD13R,3.953200X3.953200*%


D10*
X228600Y426720D02*
X228600Y411480D01*
X254000Y411480D02*
X254000Y426720D01*
X279400Y426720D02*
X279400Y411480D01*
X304800Y411480D02*
X304800Y426720D01*
X330200Y426720D02*
X330200Y411480D01*
X355600Y411480D02*
X355600Y426720D01*
X381000Y426720D02*
X381000Y411480D01*
X203200Y411480D02*
X203200Y426720D01*
X424180Y215900D02*
X439420Y215900D01*
X439420Y241300D02*
X424180Y241300D01*
X424180Y266700D02*
X439420Y266700D01*
X439420Y292100D02*
X424180Y292100D01*
X424180Y317500D02*
X439420Y317500D01*
X439420Y342900D02*
X424180Y342900D01*
X424180Y368300D02*
X439420Y368300D01*
X439420Y190500D02*
X424180Y190500D01*
X228600Y160020D02*
X228600Y144780D01*
X254000Y144780D02*
X254000Y160020D01*
X279400Y160020D02*
X279400Y144780D01*
X304800Y144780D02*
X304800Y160020D01*
X330200Y160020D02*
X330200Y144780D01*
X355600Y144780D02*
X355600Y160020D01*
X381000Y160020D02*
X381000Y144780D01*
X203200Y144780D02*
X203200Y160020D01*
X160020Y215900D02*
X144780Y215900D01*
X144780Y241300D02*
X160020Y241300D01*
X160020Y266700D02*
X144780Y266700D01*
X144780Y292100D02*
X160020Y292100D01*
X160020Y317500D02*
X144780Y317500D01*
X144780Y342900D02*
X160020Y342900D01*
X160020Y368300D02*
X144780Y368300D01*
X144780Y190500D02*
X160020Y190500D01*
D11*
X267100Y309600D03*
X267100Y304600D03*
X267100Y299600D03*
X267100Y294600D03*
X267100Y289600D03*
X267100Y284600D03*
X267100Y279600D03*
X267100Y274600D03*
D12*
X274600Y267100D03*
X279600Y267100D03*
X284600Y267100D03*
X289600Y267100D03*
X294600Y267100D03*
X299600Y267100D03*
X304600Y267100D03*
X309600Y267100D03*
D11*
X317100Y274600D03*
X317100Y279600D03*
X317100Y284600D03*
X317100Y289600D03*
X317100Y294600D03*
X317100Y299600D03*
X317100Y304600D03*
X317100Y309600D03*
D12*
X309600Y317100D03*
X304600Y317100D03*
X299600Y317100D03*
X294600Y317100D03*
X289600Y317100D03*
X284600Y317100D03*
X279600Y317100D03*
X274600Y317100D03*
D13*
X292100Y292100D03*
M02*
