G04 EAGLE Gerber RS-274X export*
G75*
%MOMM*%
%FSLAX34Y34*%
%LPD*%
%INTop Copper*%
%IPPOS*%
%AMOC8*
5,1,8,0,0,1.08239X$1,22.5*%
G01*
%ADD10R,0.800000X0.300000*%
%ADD11R,0.300000X0.800000*%
%ADD12R,3.750000X3.750000*%
%ADD13C,1.524000*%
%ADD14C,0.152400*%
%ADD15C,0.304800*%


D10*
X483000Y449300D03*
X483000Y444300D03*
X483000Y439300D03*
X483000Y434300D03*
X483000Y429300D03*
X483000Y424300D03*
X483000Y419300D03*
X483000Y414300D03*
D11*
X490500Y406800D03*
X495500Y406800D03*
X500500Y406800D03*
X505500Y406800D03*
X510500Y406800D03*
X515500Y406800D03*
X520500Y406800D03*
X525500Y406800D03*
D10*
X533000Y414300D03*
X533000Y419300D03*
X533000Y424300D03*
X533000Y429300D03*
X533000Y434300D03*
X533000Y439300D03*
X533000Y444300D03*
X533000Y449300D03*
D11*
X525500Y456800D03*
X520500Y456800D03*
X515500Y456800D03*
X510500Y456800D03*
X505500Y456800D03*
X500500Y456800D03*
X495500Y456800D03*
X490500Y456800D03*
D12*
X508000Y431800D03*
D13*
X375920Y368300D02*
X360680Y368300D01*
X360680Y393700D02*
X375920Y393700D01*
X375920Y419100D02*
X360680Y419100D01*
X360680Y444500D02*
X375920Y444500D01*
X375920Y469900D02*
X360680Y469900D01*
X360680Y495300D02*
X375920Y495300D01*
X375920Y520700D02*
X360680Y520700D01*
X360680Y342900D02*
X375920Y342900D01*
X640080Y368300D02*
X655320Y368300D01*
X655320Y393700D02*
X640080Y393700D01*
X640080Y419100D02*
X655320Y419100D01*
X655320Y444500D02*
X640080Y444500D01*
X640080Y469900D02*
X655320Y469900D01*
X655320Y495300D02*
X640080Y495300D01*
X640080Y520700D02*
X655320Y520700D01*
X655320Y342900D02*
X640080Y342900D01*
X571500Y299720D02*
X571500Y284480D01*
X546100Y284480D02*
X546100Y299720D01*
X520700Y299720D02*
X520700Y284480D01*
X495300Y284480D02*
X495300Y299720D01*
X469900Y299720D02*
X469900Y284480D01*
X444500Y284480D02*
X444500Y299720D01*
X419100Y299720D02*
X419100Y284480D01*
X596900Y284480D02*
X596900Y299720D01*
X571500Y563880D02*
X571500Y579120D01*
X546100Y579120D02*
X546100Y563880D01*
X520700Y563880D02*
X520700Y579120D01*
X495300Y579120D02*
X495300Y563880D01*
X469900Y563880D02*
X469900Y579120D01*
X444500Y579120D02*
X444500Y563880D01*
X419100Y563880D02*
X419100Y579120D01*
X596900Y579120D02*
X596900Y563880D01*
D14*
X521208Y457200D02*
X520500Y456800D01*
D15*
X520700Y457000D01*
X520700Y482600D01*
X571500Y533400D01*
X571500Y571500D01*
D14*
X525780Y457200D02*
X525500Y456800D01*
X595884Y571500D02*
X596900Y571500D01*
D15*
X596900Y546100D01*
X525500Y474700D02*
X525500Y456800D01*
X525500Y474700D02*
X596900Y546100D01*
X393700Y342900D02*
X368300Y342900D01*
X465100Y414300D02*
X483000Y414300D01*
X465100Y414300D02*
X393700Y342900D01*
D14*
X481584Y419100D02*
X483000Y419300D01*
D15*
X393700Y368300D02*
X368300Y368300D01*
X482800Y419100D02*
X483000Y419300D01*
X444500Y419100D02*
X393700Y368300D01*
X444500Y419100D02*
X482800Y419100D01*
D14*
X481584Y423672D02*
X483000Y424300D01*
D15*
X437000Y424300D01*
X406400Y393700D01*
X368300Y393700D01*
X416600Y429300D02*
X483000Y429300D01*
X416600Y429300D02*
X406400Y419100D01*
X368300Y419100D01*
D14*
X481584Y434340D02*
X483000Y434300D01*
D15*
X416600Y434300D01*
X406400Y444500D01*
X368300Y444500D01*
X431042Y439300D02*
X483000Y439300D01*
X431042Y439300D02*
X400442Y469900D01*
X368300Y469900D01*
X368300Y495300D02*
X394208Y495300D01*
X444754Y444754D01*
X445208Y444300D02*
X483000Y444300D01*
X445208Y444300D02*
X444754Y444754D01*
X490500Y406800D02*
X490500Y388900D01*
X419100Y317500D02*
X419100Y292100D01*
X419100Y317500D02*
X490500Y388900D01*
D14*
X495300Y405384D02*
X495500Y406800D01*
D15*
X495500Y381200D01*
X495300Y381000D01*
X444500Y330200D01*
X444500Y292100D01*
D14*
X499872Y405384D02*
X500500Y406800D01*
D15*
X500500Y406469D01*
X500446Y406415D01*
X500446Y373446D01*
X469900Y342900D02*
X469900Y292100D01*
X469900Y342900D02*
X500446Y373446D01*
X505500Y365800D02*
X505500Y406800D01*
X505500Y365800D02*
X495300Y355600D01*
X495300Y292100D01*
X510500Y365800D02*
X510500Y406800D01*
X510500Y365800D02*
X520700Y355600D01*
X520700Y292100D01*
X515500Y373500D02*
X515500Y406800D01*
X515500Y373500D02*
X546100Y342900D01*
X546100Y292100D01*
D14*
X521208Y405384D02*
X520500Y406800D01*
X571500Y292608D02*
X571500Y292100D01*
D15*
X520700Y381000D02*
X520500Y381200D01*
X520500Y406656D02*
X520500Y406800D01*
X520500Y406656D02*
X520595Y406537D01*
X520500Y405668D01*
X520500Y381200D01*
X520700Y381000D02*
X571500Y330200D01*
X571500Y292100D01*
D14*
X525780Y405384D02*
X525500Y406800D01*
D15*
X525500Y388900D01*
X596900Y317500D02*
X596900Y292100D01*
X596900Y317500D02*
X525500Y388900D01*
D14*
X533400Y413004D02*
X533000Y414300D01*
D15*
X546100Y414300D01*
X617500Y342900D02*
X647700Y342900D01*
X617500Y342900D02*
X546100Y414300D01*
D14*
X533400Y419100D02*
X533000Y419300D01*
X647700Y368808D02*
X647700Y368300D01*
D15*
X558600Y419300D02*
X533000Y419300D01*
X558600Y419300D02*
X558800Y419100D01*
X635000Y368300D02*
X647700Y368300D01*
X635000Y368300D02*
X622300Y368300D01*
X609600Y368300D02*
X558800Y419100D01*
X609600Y368300D02*
X622300Y368300D01*
D14*
X533400Y423672D02*
X533000Y424300D01*
D15*
X566300Y424300D01*
X596900Y393700D02*
X647700Y393700D01*
X596900Y393700D02*
X566300Y424300D01*
X586700Y429300D02*
X596900Y419100D01*
X586700Y429300D02*
X533000Y429300D01*
X596900Y419100D02*
X647700Y419100D01*
D14*
X533400Y434340D02*
X533000Y434300D01*
D15*
X586700Y434300D01*
X596900Y444500D01*
X647700Y444500D01*
X566300Y439300D02*
X533000Y439300D01*
X596900Y469900D02*
X647700Y469900D01*
X596900Y469900D02*
X566300Y439300D01*
D14*
X533400Y445008D02*
X533000Y444300D01*
D15*
X533200Y444500D01*
X558800Y444500D01*
X635000Y495300D02*
X647700Y495300D01*
X635000Y495300D02*
X622300Y495300D01*
X609600Y495300D02*
X558800Y444500D01*
X609600Y495300D02*
X622300Y495300D01*
D14*
X533400Y449580D02*
X533000Y449300D01*
X647700Y519684D02*
X647700Y520700D01*
D15*
X546100Y449300D02*
X533000Y449300D01*
X546100Y449300D02*
X617500Y520700D01*
X647700Y520700D01*
D14*
X516636Y457200D02*
X515500Y456800D01*
X545592Y571500D02*
X546100Y571500D01*
D15*
X515500Y490100D02*
X515500Y456800D01*
X515500Y490100D02*
X546100Y520700D01*
X546100Y571500D01*
D14*
X510540Y457200D02*
X510500Y456800D01*
X519684Y571500D02*
X520700Y571500D01*
D15*
X510500Y510500D02*
X510500Y456800D01*
X510500Y510500D02*
X520700Y520700D01*
X520700Y571500D01*
D14*
X504444Y457200D02*
X505500Y456800D01*
D15*
X505500Y510500D01*
X495300Y520700D01*
X495300Y571500D01*
D14*
X499872Y457200D02*
X500500Y456800D01*
D15*
X500500Y490100D01*
X469900Y520700D01*
X469900Y571500D01*
X495300Y457000D02*
X495500Y456800D01*
X495300Y457000D02*
X495300Y482600D01*
X444500Y533400D01*
X444500Y571500D01*
X419100Y571500D02*
X419100Y546100D01*
X490500Y474700D02*
X490500Y456800D01*
X490500Y474700D02*
X419100Y546100D01*
X469900Y449300D02*
X483000Y449300D01*
X469900Y449300D02*
X398500Y520700D01*
X368300Y520700D01*
M02*
