G04 EAGLE Gerber RS-274X export*
G75*
%MOMM*%
%FSLAX34Y34*%
%LPD*%
%INSilkscreen Top*%
%IPPOS*%
%AMOC8*
5,1,8,0,0,1.08239X$1,22.5*%
G01*
%ADD10C,0.250000*%
%ADD11C,0.101600*%
%ADD12C,0.127000*%


D10*
X477750Y456800D02*
X477752Y456870D01*
X477758Y456940D01*
X477768Y457009D01*
X477781Y457078D01*
X477799Y457146D01*
X477820Y457213D01*
X477845Y457278D01*
X477874Y457342D01*
X477906Y457405D01*
X477942Y457465D01*
X477981Y457523D01*
X478023Y457579D01*
X478068Y457633D01*
X478116Y457684D01*
X478167Y457732D01*
X478221Y457777D01*
X478277Y457819D01*
X478335Y457858D01*
X478395Y457894D01*
X478458Y457926D01*
X478522Y457955D01*
X478587Y457980D01*
X478654Y458001D01*
X478722Y458019D01*
X478791Y458032D01*
X478860Y458042D01*
X478930Y458048D01*
X479000Y458050D01*
X479070Y458048D01*
X479140Y458042D01*
X479209Y458032D01*
X479278Y458019D01*
X479346Y458001D01*
X479413Y457980D01*
X479478Y457955D01*
X479542Y457926D01*
X479605Y457894D01*
X479665Y457858D01*
X479723Y457819D01*
X479779Y457777D01*
X479833Y457732D01*
X479884Y457684D01*
X479932Y457633D01*
X479977Y457579D01*
X480019Y457523D01*
X480058Y457465D01*
X480094Y457405D01*
X480126Y457342D01*
X480155Y457278D01*
X480180Y457213D01*
X480201Y457146D01*
X480219Y457078D01*
X480232Y457009D01*
X480242Y456940D01*
X480248Y456870D01*
X480250Y456800D01*
X480248Y456730D01*
X480242Y456660D01*
X480232Y456591D01*
X480219Y456522D01*
X480201Y456454D01*
X480180Y456387D01*
X480155Y456322D01*
X480126Y456258D01*
X480094Y456195D01*
X480058Y456135D01*
X480019Y456077D01*
X479977Y456021D01*
X479932Y455967D01*
X479884Y455916D01*
X479833Y455868D01*
X479779Y455823D01*
X479723Y455781D01*
X479665Y455742D01*
X479605Y455706D01*
X479542Y455674D01*
X479478Y455645D01*
X479413Y455620D01*
X479346Y455599D01*
X479278Y455581D01*
X479209Y455568D01*
X479140Y455558D01*
X479070Y455552D01*
X479000Y455550D01*
X478930Y455552D01*
X478860Y455558D01*
X478791Y455568D01*
X478722Y455581D01*
X478654Y455599D01*
X478587Y455620D01*
X478522Y455645D01*
X478458Y455674D01*
X478395Y455706D01*
X478335Y455742D01*
X478277Y455781D01*
X478221Y455823D01*
X478167Y455868D01*
X478116Y455916D01*
X478068Y455967D01*
X478023Y456021D01*
X477981Y456077D01*
X477942Y456135D01*
X477906Y456195D01*
X477874Y456258D01*
X477845Y456322D01*
X477820Y456387D01*
X477799Y456454D01*
X477781Y456522D01*
X477768Y456591D01*
X477758Y456660D01*
X477752Y456730D01*
X477750Y456800D01*
D11*
X493896Y467304D02*
X493896Y475742D01*
X493896Y467304D02*
X493898Y467191D01*
X493904Y467078D01*
X493914Y466965D01*
X493928Y466852D01*
X493945Y466740D01*
X493967Y466629D01*
X493992Y466519D01*
X494022Y466409D01*
X494055Y466301D01*
X494092Y466194D01*
X494132Y466088D01*
X494177Y465984D01*
X494225Y465881D01*
X494276Y465780D01*
X494331Y465681D01*
X494389Y465584D01*
X494451Y465489D01*
X494516Y465396D01*
X494584Y465306D01*
X494655Y465218D01*
X494730Y465132D01*
X494807Y465049D01*
X494887Y464969D01*
X494970Y464892D01*
X495056Y464817D01*
X495144Y464746D01*
X495234Y464678D01*
X495327Y464613D01*
X495422Y464551D01*
X495519Y464493D01*
X495618Y464438D01*
X495719Y464387D01*
X495822Y464339D01*
X495926Y464294D01*
X496032Y464254D01*
X496139Y464217D01*
X496247Y464184D01*
X496357Y464154D01*
X496467Y464129D01*
X496578Y464107D01*
X496690Y464090D01*
X496803Y464076D01*
X496916Y464066D01*
X497029Y464060D01*
X497142Y464058D01*
X497255Y464060D01*
X497368Y464066D01*
X497481Y464076D01*
X497594Y464090D01*
X497706Y464107D01*
X497817Y464129D01*
X497927Y464154D01*
X498037Y464184D01*
X498145Y464217D01*
X498252Y464254D01*
X498358Y464294D01*
X498462Y464339D01*
X498565Y464387D01*
X498666Y464438D01*
X498765Y464493D01*
X498862Y464551D01*
X498957Y464613D01*
X499050Y464678D01*
X499140Y464746D01*
X499228Y464817D01*
X499314Y464892D01*
X499397Y464969D01*
X499477Y465049D01*
X499554Y465132D01*
X499629Y465218D01*
X499700Y465306D01*
X499768Y465396D01*
X499833Y465489D01*
X499895Y465584D01*
X499953Y465681D01*
X500008Y465780D01*
X500059Y465881D01*
X500107Y465984D01*
X500152Y466088D01*
X500192Y466194D01*
X500229Y466301D01*
X500262Y466409D01*
X500292Y466519D01*
X500317Y466629D01*
X500339Y466740D01*
X500356Y466852D01*
X500370Y466965D01*
X500380Y467078D01*
X500386Y467191D01*
X500388Y467304D01*
X500387Y467304D02*
X500387Y475742D01*
X508191Y475742D02*
X508191Y464058D01*
X508191Y469900D02*
X506568Y470874D01*
X506567Y470873D02*
X506494Y470920D01*
X506423Y470969D01*
X506353Y471022D01*
X506287Y471078D01*
X506223Y471137D01*
X506161Y471198D01*
X506103Y471262D01*
X506047Y471329D01*
X505995Y471398D01*
X505945Y471470D01*
X505899Y471544D01*
X505856Y471619D01*
X505817Y471697D01*
X505781Y471776D01*
X505749Y471857D01*
X505720Y471939D01*
X505695Y472022D01*
X505674Y472106D01*
X505657Y472191D01*
X505643Y472277D01*
X505634Y472363D01*
X505628Y472450D01*
X505626Y472537D01*
X505628Y472624D01*
X505634Y472711D01*
X505644Y472797D01*
X505657Y472883D01*
X505675Y472968D01*
X505696Y473052D01*
X505721Y473135D01*
X505750Y473218D01*
X505782Y473298D01*
X505818Y473377D01*
X505857Y473455D01*
X505900Y473530D01*
X505947Y473604D01*
X505996Y473675D01*
X506049Y473745D01*
X506104Y473811D01*
X506163Y473875D01*
X506224Y473937D01*
X506289Y473996D01*
X506355Y474051D01*
X506424Y474104D01*
X506496Y474154D01*
X506569Y474200D01*
X506645Y474243D01*
X506722Y474282D01*
X506801Y474318D01*
X506882Y474351D01*
X506964Y474379D01*
X507047Y474405D01*
X507131Y474426D01*
X507217Y474443D01*
X507217Y474444D02*
X507357Y474468D01*
X507499Y474488D01*
X507640Y474504D01*
X507782Y474515D01*
X507925Y474523D01*
X508067Y474527D01*
X508210Y474528D01*
X508353Y474524D01*
X508495Y474516D01*
X508637Y474504D01*
X508779Y474488D01*
X508920Y474469D01*
X509061Y474445D01*
X509201Y474418D01*
X509340Y474386D01*
X509478Y474351D01*
X509616Y474312D01*
X509752Y474269D01*
X509886Y474223D01*
X510020Y474172D01*
X510152Y474119D01*
X510282Y474061D01*
X510411Y474000D01*
X510538Y473935D01*
X510664Y473867D01*
X510787Y473795D01*
X508191Y469900D02*
X509813Y468926D01*
X509814Y468927D02*
X509887Y468880D01*
X509958Y468831D01*
X510028Y468778D01*
X510094Y468722D01*
X510158Y468663D01*
X510220Y468602D01*
X510278Y468538D01*
X510334Y468471D01*
X510386Y468402D01*
X510436Y468330D01*
X510482Y468256D01*
X510525Y468181D01*
X510564Y468103D01*
X510600Y468024D01*
X510632Y467943D01*
X510661Y467861D01*
X510686Y467778D01*
X510707Y467694D01*
X510724Y467609D01*
X510738Y467523D01*
X510747Y467437D01*
X510753Y467350D01*
X510755Y467263D01*
X510753Y467176D01*
X510747Y467089D01*
X510737Y467003D01*
X510724Y466917D01*
X510706Y466832D01*
X510685Y466748D01*
X510660Y466665D01*
X510631Y466582D01*
X510599Y466502D01*
X510563Y466423D01*
X510524Y466345D01*
X510481Y466270D01*
X510434Y466196D01*
X510385Y466125D01*
X510332Y466055D01*
X510277Y465989D01*
X510218Y465925D01*
X510157Y465863D01*
X510092Y465804D01*
X510026Y465749D01*
X509957Y465696D01*
X509885Y465646D01*
X509812Y465600D01*
X509736Y465557D01*
X509659Y465518D01*
X509580Y465482D01*
X509499Y465449D01*
X509417Y465421D01*
X509334Y465395D01*
X509250Y465374D01*
X509165Y465357D01*
X509164Y465356D02*
X509024Y465332D01*
X508882Y465312D01*
X508741Y465296D01*
X508599Y465285D01*
X508456Y465277D01*
X508314Y465273D01*
X508171Y465272D01*
X508028Y465276D01*
X507886Y465284D01*
X507744Y465296D01*
X507602Y465312D01*
X507461Y465331D01*
X507320Y465355D01*
X507180Y465382D01*
X507041Y465414D01*
X506903Y465449D01*
X506765Y465488D01*
X506629Y465531D01*
X506495Y465577D01*
X506361Y465628D01*
X506229Y465681D01*
X506099Y465739D01*
X505970Y465800D01*
X505843Y465865D01*
X505717Y465933D01*
X505594Y466005D01*
X515613Y473146D02*
X518858Y475742D01*
X518858Y464058D01*
X515613Y464058D02*
X522104Y464058D01*
D12*
X342900Y596900D02*
X342900Y266700D01*
X342900Y596900D02*
X673100Y596900D01*
X673100Y266700D01*
X342900Y266700D01*
X393700Y317500D02*
X622300Y317500D01*
X622300Y546100D01*
X393700Y546100D01*
X393700Y317500D01*
M02*
